<svg width="40" height="46" fill="none" xmlns="http://www.w3.org/2000/svg"><g clip-path="url(#clip0)"><path d="M36.723 33.864a18.12 18.12 0 01-2.164 3.033l.022.022-.766.77a17.914 17.914 0 01-12.79 5.322 17.918 17.918 0 01-12.752-5.284 17.918 17.918 0 01-5.284-12.752c0-.356.01-.717.032-1.076.003-.05.005-.098.01-.15v-.014l.007-.099v-.017c.005-.074.013-.15.02-.224.005-.06.01-.125.017-.191l.03-.29c.007-.056.012-.12.022-.182.01-.078.02-.17.032-.258l.022-.147a6.14 6.14 0 01.04-.26c.006-.047.016-.101.024-.153.007-.044.014-.088.024-.132.01-.057.022-.123.035-.187l.034-.18c.015-.07.027-.14.044-.213.103-.491.231-.985.376-1.466l.005-.012c.017-.064.037-.128.059-.19l.051-.164c.104-.315.217-.634.337-.941l.052-.133c.02-.046.036-.095.058-.147l.08-.192a3.17 3.17 0 01.068-.16l.01-.024c.034-.073.066-.15.1-.223a17.786 17.786 0 011.714-2.984l.104-.14c.071-.099.142-.197.216-.29.035-.045.071-.094.108-.14.079-.104.16-.204.238-.303.047-.056.094-.117.143-.174l.142-.17c.047-.056.099-.115.148-.171l.17-.194-2.118-2.12A20.892 20.892 0 000 24.972 20.884 20.884 0 006.158 39.84a20.884 20.884 0 0014.867 6.158 20.881 20.881 0 0014.902-6.195 21.091 21.091 0 002.977-3.76l-2.181-2.18z" fill="#1D2A38"/><path d="M9.813 36.188a15.758 15.758 0 0011.212 4.644 17.605 17.605 0 00.595-.01h.01l.292-.014.233-.015.106-.008.054-.004c.07-.005.142-.013.216-.02a5.02 5.02 0 00.184-.017l.12-.013.081-.01.158-.019c.196-.025.388-.052.577-.084.054-.01.105-.02.157-.026l.017-.003.123-.022.02-.005c.054-.01.108-.02.162-.032.142-.027.282-.056.42-.088.093-.02.186-.045.28-.067l.012-.002a.76.76 0 00.071-.017c.07-.017.13-.035.194-.05.054-.014.106-.026.155-.041.044-.013.084-.022.12-.035.037-.01.067-.017.094-.027l.022-.007c.04-.01.078-.022.118-.034a3.87 3.87 0 00.18-.057l.13-.04c.132-.043.265-.088.395-.134l.105-.037.027-.01.128-.047.182-.068c.049-.02.093-.035.135-.052.081-.032.155-.061.228-.093l.221-.094c.07-.03.138-.059.202-.088l.105-.047.032-.014.163-.077c.334-.16.663-.329.98-.51.034-.02.066-.04.1-.057.074-.042.148-.086.219-.128l.363-.223c.16-.103.327-.211.506-.334l.148-.103.02-.015.11-.079.01-.007.08-.06.01-.006c.047-.032.091-.067.136-.101.051-.037.1-.076.147-.113.034-.027.061-.05.091-.071l.034-.027c.05-.04.101-.079.15-.12l.152-.123.013-.01c.096-.079.189-.16.285-.241.03-.025.056-.05.086-.076l-2.12-2.122a12.819 12.819 0 01-8.337 3.063c-7.093 0-12.865-5.773-12.865-12.866a12.78 12.78 0 013.807-9.137 12.979 12.979 0 014.023-2.705l-2.25-2.25a15.923 15.923 0 00-3.895 2.845 15.731 15.731 0 00-4.684 11.244c0 4.237 1.65 8.219 4.645 11.215z" fill="#fff"/><path d="M39.02 21.025a20.884 20.884 0 00-6.158-14.867A20.89 20.89 0 0017.992 0c-5.635 0-10.928 2.198-14.9 6.195a21.12 21.12 0 00-2.979 3.76l2.184 2.184A18.119 18.119 0 014.46 9.105l-.023-.022.767-.769a17.91 17.91 0 0112.79-5.322c4.816 0 9.345 1.876 12.752 5.283a17.914 17.914 0 015.283 12.753 17.57 17.57 0 01-.042 1.226l-.007.11v.017c-.005.074-.012.15-.02.224-.004.061-.01.127-.017.194l-.03.29c-.007.056-.011.117-.021.181l-.032.258-.022.145c-.01.084-.025.172-.04.263-.007.047-.017.1-.024.152-.008.044-.015.088-.025.133a10.738 10.738 0 01-.071.366 17.599 17.599 0 01-.42 1.68c-.02.066-.04.135-.064.204l-.051.164c-.104.317-.217.634-.337.94l-.052.131-.059.148-.078.191c-.02.05-.044.106-.069.16l-.01.024-.1.224a17.79 17.79 0 01-1.714 2.984l-.102.14a17.418 17.418 0 01-.324.43c-.078.103-.16.204-.238.302-.047.056-.093.118-.142.174a6.206 6.206 0 01-.133.16l-.01.01c-.049.056-.098.115-.15.172l-.17.194 2.118 2.12a20.89 20.89 0 005.446-14.114z" fill="#fff"/><path d="M23.027 32.87l2.25 2.25a15.922 15.922 0 003.895-2.845c3.02-3 4.68-6.993 4.68-11.247 0-4.235-1.651-8.219-4.645-11.213a15.755 15.755 0 00-11.613-4.642c-.067 0-.13.002-.197.005h-.007l-.292.015-.234.014-.105.008-.054.005a6.884 6.884 0 00-.214.02c-.064.007-.123.011-.184.019-.044.005-.084.01-.12.012l-.062.008-.02.002a19.2 19.2 0 00-.732.103c-.054.01-.105.017-.157.027l-.017.003-.12.022-.027.005-.157.03a9.232 9.232 0 00-.425.088c-.094.02-.187.044-.28.066l-.013.002a.759.759 0 00-.071.017c-.069.018-.13.035-.194.05l-.155.041c-.044.013-.083.022-.123.035l-.093.027-.022.007a3.995 3.995 0 00-.297.09 3.776 3.776 0 01-.13.04c-.133.045-.266.089-.396.135l-.103.037-.03.01c-.044.017-.083.03-.122.047a3.796 3.796 0 00-.187.071l-.135.054a7.346 7.346 0 00-.229.093l-.22.094-.202.088a3.495 3.495 0 01-.106.047l-.031.015c-.054.024-.109.051-.163.076-.334.16-.663.329-.98.51l-.1.057-.207.12-.228.14c-.047.03-.096.062-.145.091-.162.103-.327.212-.504.334-.046.032-.09.064-.135.094l-.03.02a7.64 7.64 0 00-.115.083l-.014.01c-.025.02-.05.036-.076.056l-.01.008c-.047.031-.091.066-.135.1-.052.037-.099.076-.148.113l-.09.071-.035.027-.15.12c-.056.045-.11.092-.164.136a12.364 12.364 0 00-.371.317l2.122 2.122a12.821 12.821 0 018.336-3.065c7.094 0 12.866 5.772 12.866 12.865a12.78 12.78 0 01-3.807 9.137 13.015 13.015 0 01-4.021 2.702z" fill="#1D2A38"/></g><defs><clipPath id="clip0"><path fill="#fff" d="M0 0h39.019v46H0z"/></clipPath></defs></svg>