<svg width="25" height="25" fill="none" xmlns="http://www.w3.org/2000/svg"><path d="M12.483 0C7.43 0 3.32 4.11 3.32 9.162c0 2.321 1.463 5.6 4.347 9.747a65.361 65.361 0 004.269 5.475l.547.616.546-.616a65.488 65.488 0 004.27-5.475c2.884-4.147 4.346-7.426 4.346-9.747C21.645 4.11 17.535 0 12.483 0zm3.624 18.062a66.424 66.424 0 01-3.624 4.715 66.373 66.373 0 01-3.616-4.703c-2.673-3.842-4.085-6.923-4.085-8.912 0-4.246 3.454-7.7 7.7-7.7 4.247 0 7.701 3.454 7.701 7.7 0 1.986-1.41 5.064-4.076 8.9z" fill="#C8A35F"/><path d="M12.483 3.386a5.414 5.414 0 00-5.408 5.408 5.414 5.414 0 005.408 5.407 5.414 5.414 0 005.407-5.407 5.414 5.414 0 00-5.407-5.408zm0 9.354a3.95 3.95 0 01-3.946-3.946 3.95 3.95 0 013.946-3.946 3.95 3.95 0 013.946 3.946 3.95 3.95 0 01-3.946 3.946z" fill="#C8A35F"/></svg>